<svg width="50" height="70" viewBox="0 0 50 70" fill="none" xmlns="http://www.w3.org/2000/svg">
<g id="pemilo logo">
<g id="Vector 1">
<path d="M38.2853 10.9948V6.96336C38.2852 1.93578 41.6814 0 44.1427 0C50 0 50 6.96336 50 6.96336V10.9948C47.8035 15.0262 44.8748 15.0262 44.8748 15.0262C44.8748 15.0262 43.9784 15.0933 43.4105 15.0262C40.8826 14.7277 38.2853 10.9948 38.2853 10.9948Z" fill="#6EADE8"/>
<path d="M38.7853 6.96336V6.96334C38.7852 4.57032 39.5893 2.96478 40.6375 1.95673C41.696 0.9388 43.034 0.5 44.1427 0.5C45.4997 0.5 46.4872 0.900417 47.2184 1.47988C47.9571 2.06536 48.4626 2.85683 48.8069 3.67552C49.1511 4.49389 49.3256 5.31921 49.4133 5.94475C49.457 6.25623 49.4787 6.51492 49.4894 6.69414C49.4948 6.78366 49.4975 6.85313 49.4987 6.89917C49.4994 6.92218 49.4997 6.93932 49.4998 6.95016L49.5 6.96165L49.5 6.96336V6.96369V6.96374V6.96386V10.866C48.4641 12.7193 47.2859 13.6267 46.3899 14.0751C45.9302 14.3053 45.5378 14.418 45.2668 14.4733C45.1313 14.5009 45.0263 14.5142 44.9585 14.5205C44.9246 14.5236 44.9001 14.5251 44.8859 14.5257L44.8723 14.5262L44.8722 14.5262H44.8562L44.8376 14.5276H44.8376L44.8376 14.5276L44.8375 14.5276L44.8374 14.5276L44.8359 14.5277L44.8293 14.5282L44.802 14.53C44.7779 14.5316 44.7424 14.5339 44.6977 14.5364C44.6083 14.5415 44.4833 14.5475 44.3414 14.5515C44.0508 14.5598 43.715 14.5587 43.4691 14.5296C42.9427 14.4675 42.3809 14.2209 41.817 13.8519C41.2567 13.4853 40.7222 13.0162 40.2544 12.5459C39.788 12.0769 39.3965 11.6155 39.1214 11.2708C38.9842 11.0988 38.8765 10.9567 38.8038 10.8583C38.7973 10.8497 38.7912 10.8413 38.7853 10.8333V6.96336Z" stroke="black" stroke-opacity="0.4"/>
</g>
<g id="Vector 2">
<path d="M23.6418 70H26.5705C26.5705 70 48.5356 70 49.9999 48.0105V10.9948C47.8034 15.0262 44.8748 15.0262 44.8748 15.0262C44.8748 15.0262 43.9783 15.0933 43.4104 15.0262C40.8825 14.7277 38.2852 10.9948 38.2852 10.9948V33.3508C38.2852 33.3508 38.2852 38.1152 36.0887 39.9476C36.0887 39.9476 33.8922 41.7801 32.7939 41.7801H29.4992C29.4992 41.7801 26.5705 41.4136 25.1061 38.4817C25.1061 38.4817 24.7401 37.7487 24.374 38.4817C24.374 38.4817 23.2757 41.0471 19.6149 42.1466C19.6149 42.1466 18.5166 48.377 13.3914 48.7435H9.73059C9.73059 48.7435 8.99842 48.7435 8.99842 49.4764V52.4084C8.99842 52.4084 8.99842 54.2408 4.23932 56.8063L3.50715 57.1728C3.50715 57.1728 2.77501 57.5393 2.95802 57.9058L3.14106 58.2723C6.80191 65.6021 12.6593 69.267 23.6418 70Z" fill="#ECBCB4" fill-opacity="0.7"/>
<path d="M38.2852 6.96336C38.2851 1.93578 41.6814 0 44.1426 0C49.9999 0 49.9999 6.96336 49.9999 6.96336M3.58836 58.0488L3.58834 58.0488L3.58828 58.0487L3.58802 58.0481L3.58702 58.0461L3.58317 58.0384L3.56892 58.0099L3.52126 57.9145L3.4655 57.8028C3.47261 57.7962 3.48061 57.789 3.48956 57.7813C3.54218 57.7361 3.6036 57.6945 3.6558 57.6627C3.68095 57.6474 3.70188 57.6356 3.71569 57.6281L3.73021 57.6203L3.73095 57.6199L3.73117 57.6198L3.73137 57.6197L3.73171 57.6195L3.73221 57.6193L3.73247 57.6191L4.46312 57.2534L4.4699 57.25L4.47657 57.2464C6.89635 55.942 8.14985 54.8011 8.80087 53.9488C9.12733 53.5214 9.30256 53.1662 9.39584 52.9004C9.4424 52.7677 9.46812 52.6586 9.48216 52.5753C9.48917 52.5337 9.49324 52.4988 9.49555 52.4708C9.49623 52.4626 9.49676 52.455 9.49716 52.448C9.49745 52.4431 9.49768 52.4385 9.49785 52.4342L9.4983 52.4199L9.49839 52.4138L9.49841 52.411L9.49842 52.4097C9.49842 52.409 9.49842 52.4084 8.99842 52.4084H9.49842V49.4764C9.49842 49.3806 9.52093 49.3419 9.52899 49.3298C9.53911 49.3146 9.55615 49.2983 9.58831 49.2822C9.62244 49.2651 9.66262 49.2541 9.69847 49.2481C9.71522 49.2453 9.72808 49.2441 9.73479 49.2436C9.73575 49.2436 9.73656 49.2435 9.73722 49.2435H13.3914H13.4093L13.4271 49.2422C16.2215 49.0424 17.9003 47.2356 18.8593 45.5555C19.3398 44.7137 19.6503 43.8877 19.8407 43.274C19.935 42.9702 20.0005 42.7164 20.0429 42.5357C21.8084 41.9509 22.9858 41.0376 23.7315 40.2443C24.1231 39.8278 24.3945 39.4457 24.5698 39.1636C24.6433 39.0454 24.7 38.9446 24.7417 38.8659C25.5318 40.3506 26.6744 41.2002 27.628 41.6775C28.1209 41.9242 28.5651 42.0726 28.8886 42.1598C29.0505 42.2035 29.183 42.232 29.2772 42.2499C29.3243 42.2588 29.3619 42.2651 29.3889 42.2693L29.4213 42.2741L29.4313 42.2755L29.4347 42.2759L29.4361 42.2761L29.4366 42.2762C29.4368 42.2762 29.4371 42.2762 29.4992 41.7801L29.4371 42.2762L29.468 42.2801H29.4992H32.7939C33.1843 42.2801 33.6112 42.1244 33.9872 41.9451C34.3776 41.759 34.7772 41.5157 35.1307 41.2798C35.486 41.0427 35.8043 40.8065 36.0334 40.6301C36.1482 40.5417 36.2411 40.4679 36.3058 40.4158C36.3382 40.3897 36.3635 40.3691 36.3809 40.3547L36.4011 40.3381L36.4067 40.3335L36.4082 40.3322L36.4087 40.3318L36.4089 40.3317C36.4089 40.3316 36.409 40.3316 36.1554 40.0276L36.409 40.3316C37.6498 39.2964 38.2239 37.4931 38.5015 36.057C38.6436 35.3224 38.7143 34.6491 38.7496 34.1599C38.7673 33.9148 38.7762 33.7148 38.7807 33.5751C38.7829 33.5052 38.784 33.4503 38.7846 33.4123L38.7851 33.3682L38.7852 33.3561L38.7852 33.3526V33.3515V33.3511C38.7852 33.3509 38.7852 33.3508 38.2852 33.3508H38.7852V12.4304C39.0069 12.6865 39.2628 12.9671 39.5453 13.2511C40.0429 13.7514 40.6317 14.2715 41.2694 14.6887C41.9035 15.1036 42.6143 15.4356 43.3518 15.5227C43.6738 15.5608 44.0703 15.5596 44.3698 15.5511C44.523 15.5468 44.6575 15.5403 44.754 15.5348C44.8023 15.5321 44.8412 15.5296 44.8683 15.5278L44.8968 15.5259C44.9003 15.5258 44.9041 15.5257 44.9082 15.5256C44.9148 15.5254 44.9223 15.5251 44.9305 15.5247C44.9603 15.5234 45.0008 15.5209 45.0514 15.5162C45.1523 15.5067 45.2932 15.4885 45.4666 15.4531C45.8134 15.3824 46.2905 15.2432 46.8375 14.9694C47.6482 14.5636 48.5977 13.8695 49.4999 12.6902V12.7241V12.8123V12.9006V12.9892V13.0778V13.1667V13.2557V13.3448V13.4341V13.5235V13.6131V13.7028V13.7927V13.8827V13.9728V14.0631V14.1535V14.2441V14.3348V14.4256V14.5166V14.6077V14.6989V14.7902V14.8817V14.9733V15.065V15.1569V15.2488V15.3409V15.4331V15.5254V15.6179V15.7104V15.8031V15.8959V15.9887V16.0817V16.1748V16.268V16.3613V16.4548V16.5483V16.6419V16.7356V16.8294V16.9233V17.0173V17.1114V17.2056V17.2999V17.3943V17.4887V17.5833V17.6779V17.7726V17.8674V17.9623V18.0573V18.1523V18.2474V18.3426V18.4379V18.5332V18.6286V18.7241V18.8197V18.9153V19.011V19.1067V19.2025V19.2984V19.3943V19.4903V19.5864V19.6825V19.7787V19.8749V19.9711V20.0675V20.1638V20.2603V20.3567V20.4532V20.5498V20.6464V20.743V20.8397V20.9364V21.0332V21.13V21.2268V21.3237V21.4206V21.5175V21.6145V21.7114V21.8085V21.9055V22.0025V22.0996V22.1967V22.2938V22.391V22.4881V22.5853V22.6825V22.7797V22.8769V22.9741V23.0714V23.1686V23.2658V23.3631V23.4603V23.5576V23.6548V23.7521V23.8493V23.9466V24.0438V24.141V24.2383V24.3355V24.4327V24.5299V24.6271V24.7242V24.8214V24.9185V25.0156V25.1127V25.2098V25.3068V25.4039V25.5009V25.5978V25.6948V25.7917V25.8886V25.9854V26.0822V26.179V26.2758V26.3725V26.4691V26.5658V26.6624V26.7589V26.8554V26.9518V27.0482V27.1446V27.2409V27.3372V27.4334V27.5295V27.6256V27.7216V27.8176V27.9135V28.0094V28.1052V28.2009V28.2965V28.3921V28.4877V28.5831V28.6785V28.7738V28.869V28.9642V29.0593V29.1543V29.2492V29.3441V29.4389V29.5335V29.6281V29.7227V29.8171V29.9114V30.0057V30.0998V30.1939V30.2879V30.3818V30.4755V30.5692V30.6628V30.7563V30.8496V30.9429V31.0361V31.1292V31.2221V31.315V31.4077V31.5003V31.5928V31.6852V31.7775V31.8696V31.9617V32.0536V32.1454V32.2371V32.3286V32.4201V32.5114V32.6025V32.6936V32.7845V32.8753V32.9659V33.0564V33.1468V33.237V33.3271V33.4171V33.5069V33.5966V33.6861V33.7755V33.8647V33.9538V34.0427V34.1315V34.2201V34.3086V34.3969V34.4851V34.5731V34.6609V34.7486V34.8361V34.9234V35.0106V35.0977V35.1845V35.2712V35.3577V35.444V35.5302V35.6162V35.702V35.7876V35.8731V35.9584V36.0435V36.1284V36.2131V36.2976V36.382V36.4662V36.5501V36.6339V36.7175V36.8009V36.8841V36.9671V37.0499V37.1325V37.2149V37.2971V37.3791V37.4609V37.5425V37.6239V37.705V37.786V37.8668V37.9473V38.0276V38.1077V38.1876V38.2673V38.3467V38.4259V38.5049V38.5837V38.6623V38.7406V38.8187V38.8965V38.9742V39.0516V39.1287V39.2057V39.2824V39.3588V39.435V39.511V39.5867V39.6622V39.7375V39.8125V39.8872V39.9617V40.036V40.11V40.1837V40.2572V40.3305V40.4035V40.4762V40.5486V40.6208V40.6928V40.7644V40.8358V40.907V40.9779V41.0485V41.1188V41.1889V41.2586V41.3282V41.3974V41.4663V41.535V41.6034V41.6715V41.7394V41.8069V41.8742V41.9411V42.0078V42.0742V42.1403V42.2061V42.2716V42.3369V42.4018V42.4664V42.5307V42.5948V42.6585V42.7219V42.785V42.8478V42.9103V42.9725V43.0344V43.0959V43.1572V43.2181V43.2787V43.3391V43.399V43.4587V43.518V43.5771V43.6357V43.6941V43.7522V43.8099V43.8673V43.9243V43.981V44.0374V44.0935V44.1492V44.2045V44.2596V44.3143V44.3686V44.4226V44.4763V44.5296V44.5826V44.6352V44.6875V44.7394V44.791V44.8422V44.893V44.9435V44.9936V45.0434V45.0928V45.1419V45.1906V45.2389V45.2869V45.3344V45.3817V45.4285V45.475V45.5211V45.5668V45.6122V45.6571V45.7017V45.7459V45.7898V45.8332V45.8763V45.919V45.9612V46.0031V46.0446V46.0858V46.1265V46.1668V46.2068V46.2463V46.2854V46.3242V46.3625V46.4004V46.438V46.4751V46.5118V46.5481V46.584V46.6195V46.6546V46.6893V46.7235V46.7573V46.7908V46.8238V46.8563V46.8885V46.9202V46.9515V46.9824V47.0129V47.0429V47.0725V47.1016V47.1304V47.1587V47.1865V47.214V47.2409V47.2675V47.2936V47.3193V47.3445V47.3693V47.3936V47.4175V47.4409V47.4639V47.4864V47.5085V47.5301V47.5513V47.572V47.5922V47.612V47.6313V47.6502V47.6686V47.6865V47.704V47.721V47.7375V47.7536V47.7692V47.7843V47.7989V47.8131V47.8268V47.84V47.8527V47.8649V47.8767V47.8879V47.8987V47.909V47.9188V47.9282V47.937V47.9453V47.9532V47.9605V47.9673V47.9737V47.9795V47.9849V47.9897V47.9938C48.7769 58.7691 43.0559 64.1188 37.5181 66.8013C34.7359 68.149 31.9937 68.8249 29.944 69.1631C28.9202 69.332 28.0719 69.4163 27.4817 69.4583C27.1866 69.4793 26.9562 69.4897 26.8009 69.4949C26.7232 69.4975 26.6643 69.4988 26.6255 69.4994L26.5824 69.4999L26.5725 69.5L26.5705 69.5H26.5703H23.6585C18.221 69.1354 14.0999 68.0481 10.8979 66.1782C7.70126 64.3114 5.38333 61.6427 3.58836 58.0488Z" stroke="black" stroke-opacity="0.2"/>
</g>
<g id="Vector 3">
<path d="M1.46434 54.2408C1.46434 54.2408 1.83042 55.7068 3.66085 54.9738C3.66085 54.9738 6.95561 54.2408 7.3217 50.9424V48.7434C7.3217 48.7434 7.3217 46.5445 9.5182 46.5445H13.179H13.9112C13.9112 46.5445 16.4738 46.5445 17.5721 42.8795L17.9382 41.7801C17.9382 41.7801 18.3042 40.6806 17.9382 39.9476C17.9382 39.9476 16.8399 36.6492 11.7147 36.6492H1.46434C1.46434 36.6492 0 36.6492 0 37.7486V45.0785C0 45.0785 2.56607e-05 48.7434 1.46434 54.2408Z" fill="#ECBCB4" fill-opacity="0.7"/>
<path d="M1.94791 54.1137L1.94749 54.1121C1.2224 51.3899 0.86046 49.1237 0.679825 47.5414C0.589517 46.7503 0.544557 46.1305 0.522176 45.7104C0.510986 45.5004 0.505441 45.3403 0.502695 45.2338C0.501322 45.1806 0.500648 45.1407 0.500318 45.1146L0.500035 45.086L0.500003 45.0796L0.5 45.0785L0.5 45.0784L0.5 37.7486C0.5 37.5965 0.546384 37.5084 0.602691 37.445C0.668142 37.3713 0.771094 37.3061 0.907902 37.2547C1.04265 37.2041 1.18453 37.1766 1.29762 37.1625C1.35287 37.1556 1.39815 37.1522 1.4282 37.1506C1.44315 37.1498 1.45411 37.1494 1.4604 37.1493L1.46604 37.1492H11.7147C14.1591 37.1492 15.5943 37.9316 16.4137 38.6698C16.8281 39.0432 17.0947 39.4141 17.2562 39.6869C17.3369 39.8233 17.3911 39.9346 17.424 40.0088C17.4404 40.0458 17.4515 40.0734 17.4579 40.0901L17.4641 40.1067C17.4641 40.1067 17.4641 40.1067 17.4641 40.1067C17.4644 40.1073 17.4643 40.1073 17.4644 40.1076C17.4645 40.1078 17.4647 40.1085 17.4647 40.1084L17.475 40.1392L17.4908 40.171C17.6068 40.4032 17.6213 40.7399 17.5793 41.0767C17.5595 41.2355 17.5295 41.3756 17.5045 41.4757C17.4921 41.5254 17.4811 41.5644 17.4736 41.5899C17.4699 41.6026 17.467 41.6119 17.4653 41.6174L17.4638 41.6221L17.4637 41.6223L17.4636 41.6225L17.4635 41.6227L17.4635 41.6228L17.4634 41.6232L17.0977 42.7216L17.0953 42.7288L17.0931 42.736C16.5778 44.4556 15.7385 45.2654 15.0761 45.6555C14.7391 45.854 14.4349 45.9514 14.2202 45.9991C14.1129 46.023 14.0284 46.0344 13.9742 46.0397C13.9471 46.0424 13.9276 46.0436 13.9168 46.0441L13.9077 46.0445H13.179H9.5182C8.88147 46.0445 8.37069 46.2053 7.97078 46.4722C7.57404 46.737 7.31583 47.0864 7.14895 47.4205C6.98303 47.7527 6.90257 48.0789 6.8628 48.3177C6.84272 48.4383 6.83249 48.5399 6.82725 48.6133C6.82463 48.6501 6.82324 48.6801 6.82251 48.7021L6.82183 48.729L6.82172 48.7379L6.8217 48.741L6.8217 48.7423L6.8217 48.7429C6.8217 48.7432 6.8217 48.7434 7.3217 48.7434H6.8217V50.914C6.65207 52.3653 5.85096 53.2485 5.07143 53.7825C4.67664 54.0529 4.29037 54.2308 4.00285 54.3407C3.85964 54.3954 3.74249 54.4327 3.66314 54.4558C3.62351 54.4674 3.59345 54.4754 3.57444 54.4802L3.55446 54.4852L3.55227 54.4857L3.55186 54.4858L3.55153 54.4859L3.55108 54.486L3.55107 54.486L3.51265 54.4945L3.47497 54.5096C3.07519 54.6697 2.79401 54.6943 2.60392 54.6719C2.41864 54.6501 2.29267 54.5807 2.20179 54.5027C2.10604 54.4205 2.04002 54.3202 1.99745 54.235C1.97668 54.1934 1.96311 54.1586 1.95536 54.1366C1.95152 54.1256 1.94924 54.1182 1.9483 54.115C1.94783 54.1135 1.94771 54.113 1.94791 54.1137Z" stroke="black" stroke-opacity="0.2"/>
</g>
<g id="Vector 4">
<path d="M0 34.8167V26.7539C0.366085 23.822 2.19651 21.9895 5.12519 21.9895H6.22344C9.15212 21.9895 11.3486 24.5549 11.3486 26.7539V34.8167C11.3486 35.1832 11.3486 35.1832 9.5182 35.1832H2.19651C0 35.1832 0 35.1832 0 34.8167Z" fill="#ECBCB4" fill-opacity="0.7"/>
<path d="M0.93592 34.6776C0.741474 34.674 0.601331 34.6681 0.5 34.6603V26.7855C0.675746 25.4219 1.18375 24.3577 1.94569 23.635C2.70932 22.9108 3.76987 22.4895 5.12519 22.4895H6.22344C7.53713 22.4895 8.69562 23.0646 9.53054 23.9005C10.3718 24.7426 10.8486 25.8124 10.8486 26.7539V34.6664C10.7773 34.6711 10.685 34.675 10.5653 34.6776C10.3148 34.6832 9.97828 34.6832 9.5182 34.6832H2.19651C1.64533 34.6832 1.23904 34.6832 0.93592 34.6776ZM11.0422 34.6422C11.0423 34.6422 11.0411 34.6426 11.0386 34.6433C11.0409 34.6425 11.0421 34.6422 11.0422 34.6422ZM0.316171 34.6359C0.310605 34.6344 0.308202 34.6334 0.308393 34.6334C0.308583 34.6333 0.311366 34.634 0.316171 34.6359Z" stroke="black" stroke-opacity="0.2"/>
</g>
<g id="Vector 5">
<path d="M13.5451 32.9807V34.0801C13.5451 35.1796 13.9112 35.5461 15.0094 35.9126C16.8399 36.5234 17.9381 37.3786 19.0364 39.211L19.4025 39.944C19.7685 40.677 20.1346 40.677 20.8668 40.3105C22.556 39.4649 23.7955 37.7451 23.7955 36.6456V22.4133C23.7955 21.2529 23.0633 19.0539 20.1346 17.9545C19.4025 17.7582 18.5592 17.7898 17.572 17.9545C15.3755 18.321 13.5451 20.5199 13.5451 22.4133V32.9807Z" fill="#ECBCB4" fill-opacity="0.7"/>
<path d="M19.4837 38.9876L19.4751 38.9704L19.4652 38.954C18.8958 38.0039 18.311 37.2815 17.6123 36.7152C16.9126 36.1482 16.1223 35.7569 15.1677 35.4383C14.6301 35.2589 14.3827 35.1111 14.2497 34.9513C14.1309 34.8086 14.0451 34.5834 14.0451 34.0801V32.9807V22.4133C14.0451 21.6189 14.4355 20.7086 15.1103 19.9416C15.7818 19.1783 16.6907 18.6085 17.6543 18.4477C18.6032 18.2893 19.3565 18.2689 19.9822 18.4314C22.6792 19.4539 23.2955 21.4454 23.2955 22.4133V36.6456C23.2955 37.0351 23.0607 37.6323 22.5692 38.2672C22.0894 38.887 21.4141 39.4774 20.643 39.8634C20.4708 39.9496 20.3436 40.002 20.2456 40.0295C20.1494 40.0565 20.1075 40.0517 20.0955 40.0493L20.095 40.0492C20.09 40.0483 20.0728 40.045 20.0365 40.0087C19.9918 39.9639 19.9287 39.8786 19.8498 39.7206L19.4837 38.9876Z" stroke="black" stroke-opacity="0.2"/>
</g>
<g id="Vector 6">
<path d="M25.6259 34.8168V26.754C25.992 23.8221 28.1885 20.8901 31.1172 20.8901H31.4833C34.412 20.8901 36.9745 24.5551 36.9745 26.754V34.8168C36.9745 36.2828 35.7889 38.9996 32.9476 39.9477C31.4833 40.4364 30.7511 40.4364 29.2868 39.9477C27.4742 39.3429 25.6259 37.3823 25.6259 34.8168Z" fill="#ECBCB4" fill-opacity="0.7"/>
<path d="M26.1259 34.8168V26.7857C26.3021 25.4248 26.9009 24.0655 27.787 23.0516C28.6778 22.0325 29.8309 21.3901 31.1172 21.3901H31.4833C32.7404 21.3901 33.9864 22.1857 34.9453 23.3202C35.9066 24.4576 36.4745 25.813 36.4745 26.754V34.8168C36.4745 35.4361 36.2163 36.3871 35.6101 37.2998C35.0103 38.2027 34.0886 39.0399 32.7893 39.4734C32.0782 39.7107 31.5881 39.8142 31.1172 39.8142C30.6463 39.8142 30.1561 39.7107 29.445 39.4734C27.8078 38.9271 26.1259 37.1382 26.1259 34.8168Z" stroke="black" stroke-opacity="0.2"/>
</g>
</g>
</svg>
