<svg width="89" height="124" viewBox="0 0 89 124" fill="none" xmlns="http://www.w3.org/2000/svg">
<g id="pemilo logo">
<g id="Vector 1">
<path d="M68.1478 19.4765V12.3351C68.1476 3.4291 74.1929 0 78.5739 0C88.9999 0 88.9999 12.3351 88.9999 12.3351V19.4765C85.0902 26.6178 79.8772 26.6178 79.8772 26.6178C79.8772 26.6178 78.2816 26.7366 77.2706 26.6178C72.771 26.089 68.1478 19.4765 68.1478 19.4765Z" fill="#6EADE8"/>
<path d="M79.8761 26.1178L79.8766 26.1178H79.8772L79.8813 26.1177C79.8876 26.1176 79.8987 26.1173 79.9144 26.1166C79.9459 26.1152 79.9958 26.1122 80.0626 26.106C80.1962 26.0936 80.3973 26.0682 80.6534 26.0162C81.1654 25.9123 81.897 25.7023 82.7495 25.2776C84.4302 24.4403 86.6074 22.7557 88.4999 19.3478L79.8761 26.1178ZM79.8761 26.1178H79.8756L79.8586 26.1178L79.8401 26.1192L79.84 26.1192L79.84 26.1192L79.8394 26.1193L79.8364 26.1195L79.8238 26.1204L79.7736 26.1238C79.7295 26.1267 79.6649 26.1308 79.584 26.1353C79.4222 26.1444 79.1959 26.1553 78.9389 26.1626C78.418 26.1773 77.7965 26.1762 77.329 26.1212C76.3092 26.0014 75.2508 25.5313 74.2197 24.8599C73.1922 24.1908 72.2196 23.34 71.3755 22.4954C70.5326 21.652 69.8263 20.8234 69.3305 20.2051C69.0829 19.8963 68.8885 19.6408 68.7565 19.4633C68.7135 19.4055 68.6772 19.356 68.6478 19.3156V12.3351C68.6477 8.00361 70.1135 5.0554 72.0636 3.18902C74.0242 1.31264 76.5047 0.5 78.5739 0.5C81.0737 0.5 82.9182 1.23654 84.2918 2.31994C85.6729 3.40924 86.6065 4.87225 87.2361 6.36218C87.8657 7.85186 88.1829 9.34848 88.3419 10.4775C88.4213 11.0407 88.4608 11.5092 88.4805 11.8352C88.4903 11.9981 88.4952 12.1253 88.4976 12.2106C88.4988 12.2533 88.4994 12.2855 88.4997 12.3065L88.4999 12.3295L88.4999 12.3345L88.4999 12.3351V12.3354L79.8761 26.1178Z" stroke="black" stroke-opacity="0.4"/>
</g>
<g id="Vector 2">
<path d="M42.0825 124H47.2955C47.2955 124 86.3934 124 88.9999 85.0471V19.4765C85.0902 26.6178 79.8771 26.6178 79.8771 26.6178C79.8771 26.6178 78.2815 26.7366 77.2706 26.6178C72.771 26.089 68.1477 19.4765 68.1477 19.4765V59.0785C68.1477 59.0785 68.1477 67.5183 64.2379 70.7644C64.2379 70.7644 60.3282 74.0105 58.3733 74.0105H52.5086C52.5086 74.0105 47.2955 73.3613 44.689 68.1675C44.689 68.1675 44.0374 66.8691 43.3858 68.1675C43.3858 68.1675 41.4309 72.7121 34.9146 74.6597C34.9146 74.6597 32.9597 85.6964 23.8368 86.3456H17.3205C17.3205 86.3456 16.0173 86.3456 16.0173 87.644V92.8377C16.0173 92.8377 16.0173 96.0838 7.54606 100.628L6.2428 101.278C6.2428 101.278 4.93959 101.927 5.26535 102.576L5.59117 103.225C12.1075 116.209 22.5336 122.702 42.0825 124Z" fill="#ECBCB4" fill-opacity="0.7"/>
<path d="M6.46574 101.725L6.46595 101.725L6.46613 101.725L6.46639 101.725L6.46658 101.725L7.769 101.076L7.77577 101.072L7.78243 101.069C12.0581 98.7751 14.2398 96.7862 15.355 95.3332C15.9136 94.6055 16.205 94.0116 16.3564 93.5822C16.4321 93.3678 16.4723 93.1955 16.4937 93.0696C16.5043 93.0067 16.5102 92.9556 16.5135 92.9167C16.5143 92.9061 16.515 92.8965 16.5156 92.8878C16.516 92.8804 16.5163 92.8738 16.5166 92.8677L16.5171 92.8503L16.5172 92.8434L16.5173 92.8404L16.5173 92.839C16.5173 92.8384 16.5173 92.8377 16.0173 92.8377H16.5173V87.644C16.5173 87.4073 16.5752 87.2629 16.6364 87.1714C16.6998 87.0767 16.7881 87.0071 16.8918 86.9554C16.9975 86.9028 17.1092 86.874 17.1988 86.8591C17.2424 86.8519 17.2776 86.8484 17.3 86.8468C17.3111 86.846 17.3188 86.8457 17.3225 86.8456C17.323 86.8456 17.3234 86.8456 17.3237 86.8456H23.8368H23.8546L23.8723 86.8443C28.6645 86.5033 31.5571 83.4255 33.2305 80.5079C34.068 79.0476 34.6106 77.6119 34.9439 76.5432C35.1108 76.008 35.2258 75.5627 35.2995 75.2497C35.3168 75.1757 35.3319 75.1091 35.3449 75.0504C38.5351 74.0406 40.64 72.421 41.9572 71.0266C42.6344 70.3098 43.1022 69.6538 43.4026 69.1729C43.5528 68.9324 43.6613 68.7354 43.7332 68.5962C43.7692 68.5265 43.7961 68.4713 43.8145 68.4322C43.8237 68.4127 43.8308 68.3971 43.8359 68.3859L43.8377 68.3817C43.9204 68.219 43.9852 68.1424 44.0207 68.1084C44.0646 68.1421 44.1173 68.2004 44.1679 68.2724C44.1935 68.3088 44.2137 68.3418 44.2271 68.3649C44.2336 68.3762 44.2383 68.3848 44.2409 68.3897L44.2421 68.3918C44.2422 68.3919 44.2422 68.392 44.2423 68.3922C44.2424 68.3923 44.2424 68.3924 44.2425 68.3925C44.2425 68.3926 44.2426 68.3928 44.2427 68.393C44.2428 68.3932 44.243 68.3935 44.2431 68.3937C45.606 71.1082 47.6526 72.637 49.3533 73.4842C50.2031 73.9075 50.9684 74.1618 51.5238 74.3108C51.8017 74.3854 52.0279 74.4337 52.1867 74.4637C52.2661 74.4788 52.3288 74.4892 52.3727 74.496C52.3947 74.4994 52.4121 74.5019 52.4245 74.5037L52.4394 74.5057L52.4441 74.5063L52.4457 74.5065L52.4463 74.5066C52.4466 74.5066 52.4468 74.5066 52.5086 74.0105L52.4468 74.5066L52.4776 74.5105H52.5086H58.3733C58.9773 74.5105 59.6715 74.2668 60.3287 73.955C61 73.6365 61.6941 73.2166 62.3153 72.8039C62.9383 72.3902 63.4976 71.9774 63.9006 71.6685C64.1024 71.5138 64.2657 71.3848 64.3789 71.294C64.4355 71.2486 64.4796 71.2128 64.5098 71.1881L64.5445 71.1597L64.5537 71.1521L64.5563 71.15L64.557 71.1494L64.5572 71.1492C64.5573 71.1491 64.5573 71.1491 64.2379 70.7644L64.5573 71.1491C66.6552 69.4073 67.6579 66.3316 68.1498 63.7995C68.399 62.5171 68.5232 61.3401 68.5853 60.4842C68.6164 60.0557 68.632 59.7066 68.6398 59.4636C68.6438 59.3421 68.6457 59.247 68.6467 59.1817C68.6472 59.1491 68.6475 59.1239 68.6476 59.1066L68.6477 59.0865L68.6477 59.081L68.6477 59.0794V59.0789C68.6477 59.0787 68.6477 59.0785 68.1477 59.0785H68.6477V20.9515C69.153 21.575 69.8469 22.3806 70.6682 23.2023C71.5423 24.0769 72.5692 24.9784 73.674 25.6979C74.7754 26.4151 75.9823 26.9699 77.2123 27.1144C77.7556 27.1783 78.4374 27.1771 78.9671 27.1622C79.2354 27.1546 79.4712 27.1432 79.6401 27.1337C79.7246 27.129 79.7925 27.1247 79.8396 27.1216L79.8941 27.1179L79.8988 27.1176L79.9031 27.1175C79.9096 27.1173 79.9173 27.1171 79.926 27.1169C79.9356 27.1165 79.9466 27.1161 79.9589 27.1156C80.0057 27.1135 80.0716 27.1095 80.155 27.1017C80.3217 27.0862 80.5585 27.0559 80.8522 26.9962C81.4398 26.877 82.2558 26.6407 83.1953 26.1727C84.7927 25.377 86.7277 23.9209 88.4999 21.2687V85.0303C87.2059 104.286 76.9174 113.877 66.9532 118.68C61.9579 121.089 57.0382 122.295 53.3643 122.898C51.5284 123.199 50.0063 123.35 48.9453 123.425C48.4149 123.463 47.9999 123.481 47.7187 123.491C47.5781 123.495 47.4711 123.498 47.3998 123.499C47.3641 123.499 47.3374 123.5 47.3199 123.5L47.3007 123.5L47.2964 123.5H47.2955H42.0991C32.3781 122.853 24.9729 120.917 19.2008 117.562C13.4342 114.211 9.26045 109.422 6.03805 103.001L5.71435 102.356C5.71601 102.35 5.71965 102.339 5.72752 102.323C5.7607 102.257 5.83599 102.166 5.95662 102.063C6.07167 101.965 6.20001 101.879 6.30354 101.817C6.35435 101.786 6.39703 101.762 6.42619 101.746C6.4306 101.744 6.43469 101.741 6.43844 101.739C6.44704 101.735 6.45383 101.731 6.4586 101.729L6.46561 101.725L6.46574 101.725Z" stroke="black" stroke-opacity="0.2"/>
</g>
<g id="Vector 3">
<path d="M2.60652 96.0838C2.60652 96.0838 3.25815 98.6807 6.51631 97.3822C6.51631 97.3822 12.381 96.0838 13.0326 90.2409V86.3456C13.0326 86.3456 13.0326 82.4503 16.9424 82.4503H23.4587H24.762C24.762 82.4503 29.3234 82.4503 31.2783 75.9582L31.9299 74.0105C31.9299 74.0105 32.5815 72.0629 31.9299 70.7644C31.9299 70.7644 29.975 64.9215 20.8522 64.9215H2.60652C2.60652 64.9215 0 64.9215 0 66.8692V79.8534C0 79.8534 4.56761e-05 86.3456 2.60652 96.0838Z" fill="#ECBCB4" fill-opacity="0.7"/>
<path d="M3.09098 95.9601L3.0908 95.9594C3.09061 95.9587 3.09057 95.9585 3.09069 95.959L3.08952 95.9545C1.79341 91.1121 1.14596 87.0789 0.822575 84.2598C0.66089 82.8503 0.580243 81.7446 0.540018 80.9933C0.519907 80.6176 0.509902 80.3306 0.504925 80.1385C0.502437 80.0424 0.501205 79.9701 0.500596 79.9224L0.50007 79.8692L0.500008 79.8566L0.500001 79.8538L0.5 79.8534V79.8533L0.5 79.8533L0.5 66.8692C0.5 66.5057 0.617273 66.2588 0.78036 66.076C0.952726 65.8828 1.19843 65.7379 1.47825 65.6333C1.75594 65.5296 2.04076 65.4755 2.26105 65.4481C2.36989 65.4346 2.45985 65.4279 2.52117 65.4246C2.55176 65.423 2.57502 65.4222 2.5897 65.4218L2.60507 65.4215L2.60714 65.4215L2.60686 65.4215C2.6067 65.4215 2.60652 65.4215 2.60652 64.9215M3.09098 95.9601L31.9299 70.7644C31.9299 70.7644 29.975 64.9215 20.8522 64.9215H2.60652M3.09098 95.9601L3.09111 95.9605L3.09385 95.97C3.09721 95.9813 3.10324 96.0006 3.11235 96.0264C3.13065 96.0782 3.1609 96.1549 3.20613 96.245C3.29761 96.4273 3.44376 96.6514 3.66431 96.8397C4.06656 97.1832 4.83914 97.5124 6.33121 96.9178L6.36876 96.9028L6.40752 96.8942L6.40761 96.8942L6.40785 96.8941L6.40823 96.8941L6.4089 96.8939L6.41783 96.8918C6.42647 96.8898 6.44043 96.8864 6.45939 96.8816C6.49731 96.872 6.55514 96.8566 6.6302 96.8349C6.78043 96.7912 6.99912 96.7219 7.26507 96.6207C7.79808 96.418 8.51457 96.0898 9.24848 95.5895C10.7063 94.5957 12.2202 92.9351 12.5326 90.2127V86.3456H13.0326M3.09098 95.9601L13.0326 86.3456M2.60652 64.9215V65.4215H2.60746H20.8522C25.2961 65.4215 27.9451 66.8405 29.4783 68.2152C30.2495 68.9068 30.7481 69.5958 31.0522 70.1071C31.2042 70.3627 31.3074 70.5734 31.3715 70.7171C31.4035 70.7889 31.4257 70.8438 31.4394 70.8791C31.4462 70.8968 31.4509 70.9095 31.4535 70.9169L31.4557 70.9231L31.4559 70.9237M2.60652 64.9215C2.60652 64.9215 0 64.9215 0 66.8692L31.4559 70.9237M13.0326 86.3456C12.5326 86.3456 12.5326 86.3453 12.5326 86.3451L12.5326 86.3444L12.5326 86.3429L12.5326 86.3388L12.5328 86.3263C12.533 86.3162 12.5333 86.3024 12.5339 86.2851C12.535 86.2507 12.5372 86.2025 12.5415 86.1425C12.5501 86.0226 12.5671 85.8547 12.6006 85.6545C12.6672 85.2564 12.8013 84.718 13.0745 84.1737C13.3487 83.6273 13.7677 83.066 14.4054 82.6424C15.0462 82.2169 15.8778 81.9503 16.9424 81.9503H23.4587H24.7601L24.7608 81.9503L24.7613 81.9503L24.7637 81.9502C24.7685 81.9501 24.7775 81.9499 24.7903 81.9493C24.816 81.9481 24.8574 81.9455 24.9127 81.94C25.0234 81.9291 25.1894 81.9067 25.3972 81.8607C25.8128 81.7687 26.3937 81.5828 27.0342 81.2074C28.3036 80.4635 29.8562 78.9467 30.7995 75.814L30.8017 75.8067L30.8041 75.7995L31.4556 73.8524L31.4556 73.8523L31.4556 73.8522L31.4557 73.8521L31.4557 73.8519L31.4563 73.8501L31.4604 73.8375C31.4641 73.8256 31.4699 73.807 31.4773 73.7821C31.492 73.7324 31.513 73.6581 31.5366 73.5642C31.5839 73.3758 31.6405 73.1121 31.6782 72.8121C31.7559 72.1928 31.7412 71.5032 31.483 70.9887L31.4671 70.9569L31.4563 70.9246L31.4561 70.9241L31.4561 70.9241L31.4559 70.9237M13.0326 86.3456L31.4559 70.9237" stroke="black" stroke-opacity="0.2"/>
</g>
<g id="Vector 4">
<path d="M0 61.6754V47.3927C0.651631 42.199 3.90978 38.9529 9.12283 38.9529H11.0777C16.2908 38.9529 20.2006 43.4974 20.2006 47.3927V61.6754C20.2006 62.3246 20.2006 62.3246 16.9424 62.3246H3.90979C0 62.3246 0 62.3246 0 61.6754Z" fill="#ECBCB4" fill-opacity="0.7"/>
<path d="M0.5 61.6754V47.4242C0.818516 44.9301 1.75454 42.9475 3.19408 41.5887C4.63577 40.228 6.62464 39.4529 9.12283 39.4529H11.0777C13.5344 39.4529 15.6926 40.5234 17.2411 42.0663C18.7961 43.6155 19.7006 45.6038 19.7006 47.3927V61.6754C19.7006 61.7059 19.7005 61.731 19.7003 61.7521C19.6987 61.7525 19.6972 61.7528 19.6956 61.7531C19.5399 61.7841 19.2748 61.8044 18.815 61.8146C18.3637 61.8246 17.7594 61.8246 16.9424 61.8246H3.90979C2.93029 61.8246 2.20274 61.8246 1.65866 61.8146C1.10735 61.8044 0.774549 61.7841 0.570626 61.7502C0.542881 61.7456 0.51959 61.741 0.500195 61.7368C0.500057 61.7195 0.5 61.6993 0.5 61.6754ZM19.7884 61.7278C19.7885 61.7278 19.7879 61.7281 19.7867 61.7286L19.7884 61.7278Z" stroke="black" stroke-opacity="0.2"/>
</g>
<g id="Vector 5">
<path d="M24.1104 58.4229V60.3705C24.1104 62.3182 24.762 62.9674 26.7169 63.6166C29.975 64.6986 31.9299 66.2135 33.8848 69.4595L34.5364 70.758C35.1881 72.0564 35.8397 72.0564 37.143 71.4072C40.1498 69.9093 42.356 66.8627 42.356 64.915V39.7036C42.356 37.648 41.0528 33.7527 35.8397 31.8051C34.5364 31.4574 33.0354 31.5133 31.2783 31.8051C27.3685 32.4543 24.1104 36.3496 24.1104 39.7036V58.4229Z" fill="#ECBCB4" fill-opacity="0.7"/>
<path d="M34.3317 69.2353L34.3231 69.2181L34.3131 69.2016C33.3152 67.5446 32.302 66.304 31.1035 65.3373C29.904 64.37 28.5428 63.6961 26.8745 63.1421C25.9082 62.8212 25.3753 62.5318 25.0641 62.1597C24.7674 61.805 24.6104 61.2975 24.6104 60.3705V58.4229V39.7036C24.6104 38.1797 25.357 36.4804 26.6028 35.0712C27.8451 33.6658 29.5393 32.6007 31.3602 32.2983C33.0797 32.0128 34.4908 31.9681 35.6877 32.2821C40.6701 34.1535 41.856 37.8421 41.856 39.7036V64.915C41.856 65.7278 41.3802 66.8685 40.4824 68.0228C39.5964 69.1619 38.35 70.2473 36.92 70.9596C36.2621 71.2873 35.9153 71.3669 35.6931 71.3226C35.52 71.2881 35.2899 71.1445 34.9833 70.5337L34.3317 69.2353Z" stroke="black" stroke-opacity="0.2"/>
</g>
<g id="Vector 6">
<path d="M45.6141 61.6754V47.3927C46.2658 42.199 50.1756 37.0052 55.3886 37.0052H56.0402C61.2533 37.0052 65.8147 43.4974 65.8147 47.3927V61.6754C65.8147 64.2723 63.7042 69.0848 58.6468 70.7644C56.0402 71.63 54.737 71.63 52.1304 70.7644C48.9042 69.693 45.6141 66.2199 45.6141 61.6754Z" fill="#ECBCB4" fill-opacity="0.7"/>
<path d="M46.1141 61.6754V47.4242C46.4331 44.9331 47.5312 42.4433 49.1665 40.5813C50.8065 38.7139 52.9592 37.5052 55.3886 37.5052H56.0402C58.4405 37.5052 60.7575 39.0087 62.5013 41.0619C64.2477 43.1183 65.3147 45.6043 65.3147 47.3927V61.6754C65.3147 62.8595 64.8257 64.6168 63.7114 66.2863C62.6038 67.9459 60.8969 69.4903 58.4892 70.2899C57.2069 70.7157 56.2882 70.9136 55.3886 70.9136C54.489 70.9136 53.5703 70.7157 52.288 70.2899C49.236 69.2763 46.1141 65.9743 46.1141 61.6754Z" stroke="black" stroke-opacity="0.2"/>
</g>
</g>
</svg>
