<svg width="125" height="125" viewBox="0 0 125 125" fill="none" xmlns="http://www.w3.org/2000/svg">
<circle cx="62.5" cy="62.5" r="62.5" fill="#6EADE8" fill-opacity="0.7"/>
<path d="M74.9882 19.5812V16.0681C74.9881 11.6869 78.1805 10 80.4941 10C86 10 86 16.0681 86 16.0681V19.5812C83.9353 23.0942 81.1823 23.0943 81.1823 23.0943C81.1823 23.0943 80.3397 23.1527 79.8059 23.0943C77.4296 22.8341 74.9882 19.5812 74.9882 19.5812Z" fill="#589EE0"/>
<path d="M61.2233 71H63.9763C63.9763 71 84.6234 71 85.9999 51.8377V19.5812C83.9352 23.0942 81.1823 23.0943 81.1823 23.0943C81.1823 23.0943 80.3396 23.1527 79.8058 23.0943C77.4296 22.8341 74.9881 19.5812 74.9881 19.5812V39.0628C74.9881 39.0628 74.9881 43.2147 72.9234 44.8115C72.9234 44.8115 70.8587 46.4084 69.8263 46.4084H66.7292C66.7292 46.4084 63.9763 46.089 62.5998 43.534C62.5998 43.534 62.2557 42.8953 61.9115 43.534C61.9115 43.534 60.8792 45.7696 57.438 46.7278C57.438 46.7278 56.4056 52.1571 51.5879 52.4764H48.1467C48.1467 52.4764 47.4585 52.4764 47.4585 53.1152V55.6702C47.4585 55.6702 47.4585 57.267 42.985 59.5026L42.2967 59.822C42.2967 59.822 41.6085 60.1414 41.7805 60.4607L41.9526 60.7801C45.3938 67.1675 50.8997 70.3613 61.2233 71Z" fill="white"/>
<path d="M40.3765 57.267C40.3765 57.267 40.7206 58.5445 42.4412 57.9058C42.4412 57.9058 45.5383 57.267 45.8824 54.3927V52.4765C45.8824 52.4765 45.8824 50.5602 47.9471 50.5602H51.3883H52.0765C52.0765 50.5602 54.4854 50.5602 55.5177 47.3665L55.8619 46.4084C55.8619 46.4084 56.206 45.4503 55.8619 44.8115C55.8619 44.8115 54.8295 41.9372 50.0118 41.9372H40.3765C40.3765 41.9372 39 41.9372 39 42.8953V49.2827C39 49.2827 39 52.4765 40.3765 57.267Z" fill="white"/>
<path d="M39 40.3403V33.3141C39.3441 30.7592 41.0647 29.1623 43.8177 29.1623H44.85C47.603 29.1623 49.6677 31.3979 49.6677 33.3141V40.3403C49.6677 40.6597 49.6677 40.6597 47.9471 40.6597H41.0647C39 40.6597 39 40.6597 39 40.3403Z" fill="white"/>
<path d="M51.7324 38.7403V39.6984C51.7324 40.6565 52.0765 40.9759 53.1089 41.2953C54.8295 41.8276 55.8619 42.5728 56.8942 44.1696L57.2383 44.8084C57.5825 45.4471 57.9266 45.4471 58.6148 45.1277C60.2027 44.3909 61.3678 42.8921 61.3678 41.934V29.5316C61.3678 28.5204 60.6795 26.6042 57.9266 25.6461C57.2383 25.475 56.4456 25.5025 55.5177 25.6461C53.453 25.9654 51.7324 27.8817 51.7324 29.5316V38.7403Z" fill="white"/>
<path d="M63.0884 40.3403V33.3141C63.4325 30.7592 65.4972 28.2042 68.2502 28.2042H68.5943C71.3472 28.2042 73.7561 31.3979 73.7561 33.3141V40.3403C73.7561 41.6178 72.6416 43.9853 69.9708 44.8115C68.5943 45.2373 67.9061 45.2373 66.5296 44.8115C64.8258 44.2844 63.0884 42.5759 63.0884 40.3403Z" fill="white"/>
<path d="M24.936 92.144C29.94 92.144 33.972 88.112 33.972 83.108C33.972 78.14 29.94 74.072 24.936 74.072C19.968 74.072 15.9 78.14 15.9 83.108V83.144V99.272C15.9 100.244 16.692 101.036 17.7 101.036C18.672 101.036 19.464 100.244 19.464 99.272V90.308C20.976 91.46 22.884 92.144 24.936 92.144ZM24.936 77.636C27.96 77.636 30.408 80.12 30.408 83.108C30.408 86.132 27.96 88.58 24.936 88.58C21.912 88.58 19.464 86.132 19.464 83.144V83.108C19.464 80.084 21.912 77.636 24.936 77.636ZM79.8323 81.2C79.8323 77.24 76.5923 74 72.5963 74C70.4363 74 68.4923 74.936 67.1603 76.484C65.8283 74.936 63.8843 74 61.7243 74C57.7283 74 54.4883 77.24 54.4883 81.2V90.272C54.4883 91.28 55.2803 92.072 56.2883 92.072C57.2603 92.072 58.0523 91.28 58.0523 90.272V81.2C58.0523 79.184 59.7083 77.564 61.7243 77.564C63.7403 77.564 65.3603 79.184 65.3603 81.2V90.272C65.3603 91.28 66.1883 92.072 67.1603 92.072C68.1323 92.072 68.9243 91.28 68.9243 90.272V81.2C68.9243 79.184 70.5803 77.564 72.5963 77.564C74.6123 77.564 76.2683 79.184 76.2683 81.2C76.2683 81.272 76.2683 81.308 76.2683 81.344C76.2683 81.416 76.2683 81.452 76.2683 81.524V90.272C76.2683 91.28 77.0603 92.072 78.0323 92.072C79.0043 92.072 79.8323 91.28 79.8323 90.272V81.524C79.8323 81.452 79.8323 81.416 79.7963 81.344C79.8323 81.308 79.8323 81.272 79.8323 81.2ZM83.8157 92.036C84.7877 92.036 85.5797 91.244 85.5797 90.236V75.728C85.5797 74.756 84.7877 73.964 83.8157 73.964C82.8077 73.964 82.0157 74.756 82.0157 75.728V90.236C82.0157 91.244 82.8077 92.036 83.8157 92.036ZM83.8157 70.364C84.2837 70.364 84.7517 70.184 85.0757 69.86C85.3997 69.536 85.5797 69.068 85.5797 68.6C85.5797 68.132 85.3997 67.664 85.0757 67.34C84.7517 67.016 84.2837 66.8 83.8157 66.8C83.3477 66.8 82.8797 67.016 82.5557 67.34C82.2317 67.664 82.0157 68.132 82.0157 68.6C82.0157 69.068 82.2317 69.536 82.5557 69.86C82.8797 70.184 83.3477 70.364 83.8157 70.364ZM89.6165 92.036C90.5885 92.036 91.3805 91.244 91.3805 90.236V66.8C91.3805 65.828 90.5885 65.036 89.6165 65.036C88.6085 65.036 87.8165 65.828 87.8165 66.8V90.236C87.8165 91.244 88.6085 92.036 89.6165 92.036ZM102.473 92C107.477 92 111.509 87.932 111.509 82.964C111.509 77.96 107.477 73.928 102.473 73.928C97.5053 73.928 93.4373 77.96 93.4373 82.964C93.4373 87.932 97.5053 92 102.473 92ZM102.473 77.492C105.497 77.492 107.945 79.94 107.945 82.964C107.945 85.952 105.497 88.436 102.473 88.436C99.4493 88.436 97.0013 85.952 97.0013 82.964C97.0013 79.94 99.4493 77.492 102.473 77.492Z" fill="white"/>
<path d="M41.5581 74.5033C36.799 76.0497 34.2103 81.1303 35.7566 85.8894C37.2918 90.6142 42.3835 93.2372 47.1426 91.6908C48.4094 91.2792 50.1667 90.7461 51.9369 88.5054C52.5575 87.736 52.7134 86.7012 52.0244 85.9787C51.3466 85.2905 50.1295 85.156 49.5088 85.9255C48.2103 87.5208 46.8288 88.0454 46.0413 88.3013C43.7473 89.0466 41.3517 88.1974 39.9652 86.3767L51.7773 82.5387C52.736 82.2272 53.2445 81.2292 52.9441 80.3048C51.1308 74.724 45.7009 73.1573 41.5581 74.5033ZM42.6594 77.8929C44.7137 77.2254 47.2609 77.6091 48.7586 79.7721L38.8638 82.9871C38.9265 80.7335 40.3655 78.6383 42.6594 77.8929Z" fill="white"/>
</svg>
