<svg width="250" height="250" viewBox="0 0 250 250" fill="none" xmlns="http://www.w3.org/2000/svg">
<circle cx="125" cy="125" r="125" fill="#6EADE8"/>
<path d="M148.616 43.7487V37.2408C148.616 29.1249 154.526 26 158.808 26C169 26 169 37.2408 169 37.2408V43.7487C165.178 50.2566 160.082 50.2566 160.082 50.2566C160.082 50.2566 158.522 50.3648 157.534 50.2566C153.136 49.7747 148.616 43.7487 148.616 43.7487Z" fill="#83CBFF"/>
<path d="M123.137 139H128.233C128.233 139 166.452 139 169 103.503V43.7487C165.178 50.2566 160.082 50.2566 160.082 50.2566C160.082 50.2566 158.522 50.3648 157.534 50.2566C153.136 49.7747 148.616 43.7487 148.616 43.7487V79.8377C148.616 79.8377 148.616 87.5288 144.794 90.4869C144.794 90.4869 140.972 93.445 139.061 93.445H133.329C133.329 93.445 128.233 92.8534 125.685 88.1204C125.685 88.1204 125.048 86.9372 124.411 88.1204C124.411 88.1204 122.5 92.2618 116.13 94.0367C116.13 94.0367 114.219 104.094 105.301 104.686H98.9313C98.9313 104.686 97.6573 104.686 97.6573 105.869V110.602C97.6573 110.602 97.6573 113.56 89.3764 117.702L88.1025 118.293C88.1025 118.293 86.8286 118.885 87.147 119.476L87.4655 120.068C93.8354 131.901 104.027 137.817 123.137 139Z" fill="white"/>
<path d="M84.5479 113.56C84.5479 113.56 85.1849 115.927 88.3699 114.743C88.3699 114.743 94.1028 113.56 94.7398 108.236V104.686C94.7398 104.686 94.7398 101.136 98.5617 101.136H104.932H106.206C106.206 101.136 110.664 101.136 112.575 95.2199L113.212 93.445C113.212 93.445 113.849 91.6701 113.212 90.4869C113.212 90.4869 111.301 85.1623 102.384 85.1623H84.5479C84.5479 85.1623 82 85.1623 82 86.9372V98.7696C82 98.7696 82 104.686 84.5479 113.56Z" fill="white"/>
<path d="M82 82.2042V69.1885C82.637 64.4555 85.8219 61.4974 90.9178 61.4974H92.8288C97.9247 61.4974 101.747 65.6387 101.747 69.1885V82.2042C101.747 82.7958 101.747 82.7958 98.5617 82.7958H85.8219C82 82.7958 82 82.7958 82 82.2042Z" fill="white"/>
<path d="M105.569 79.2402V81.0151C105.569 82.7899 106.206 83.3816 108.116 83.9732C111.301 84.9592 113.212 86.3397 115.123 89.2978L115.76 90.481C116.397 91.6643 117.034 91.6643 118.308 91.0727C121.248 89.7077 123.404 86.9313 123.404 85.1564V62.1815C123.404 60.3082 122.13 56.7585 117.034 54.9837C115.76 54.6668 114.293 54.7178 112.575 54.9837C108.753 55.5753 105.569 59.125 105.569 62.1815V79.2402Z" fill="white"/>
<path d="M126.589 82.2042V69.1885C127.226 64.4555 131.048 59.7225 136.144 59.7225H136.781C141.877 59.7225 146.336 65.6388 146.336 69.1885V82.2042C146.336 84.5707 144.273 88.9563 139.329 90.4869C136.781 91.2758 135.507 91.2758 132.959 90.4869C129.805 89.5105 126.589 86.3456 126.589 82.2042Z" fill="white"/>
<path d="M50.872 186.85C60.88 186.85 68.944 178.786 68.944 168.778C68.944 158.842 60.88 150.706 50.872 150.706C40.936 150.706 32.8 158.842 32.8 168.778V168.85V201.106C32.8 203.05 34.384 204.634 36.4 204.634C38.344 204.634 39.928 203.05 39.928 201.106V183.178C42.952 185.482 46.768 186.85 50.872 186.85ZM50.872 157.834C56.92 157.834 61.816 162.802 61.816 168.778C61.816 174.826 56.92 179.722 50.872 179.722C44.824 179.722 39.928 174.826 39.928 168.85V168.778C39.928 162.73 44.824 157.834 50.872 157.834ZM160.665 164.962C160.665 157.042 154.185 150.562 146.193 150.562C141.873 150.562 137.985 152.434 135.321 155.53C132.657 152.434 128.769 150.562 124.449 150.562C116.457 150.562 109.977 157.042 109.977 164.962V183.106C109.977 185.122 111.561 186.706 113.577 186.706C115.521 186.706 117.105 185.122 117.105 183.106V164.962C117.105 160.93 120.417 157.69 124.449 157.69C128.481 157.69 131.721 160.93 131.721 164.962V183.106C131.721 185.122 133.377 186.706 135.321 186.706C137.265 186.706 138.849 185.122 138.849 183.106V164.962C138.849 160.93 142.161 157.69 146.193 157.69C150.225 157.69 153.537 160.93 153.537 164.962C153.537 165.106 153.537 165.178 153.537 165.25C153.537 165.394 153.537 165.466 153.537 165.61V183.106C153.537 185.122 155.121 186.706 157.065 186.706C159.009 186.706 160.665 185.122 160.665 183.106V165.61C160.665 165.466 160.665 165.394 160.593 165.25C160.665 165.178 160.665 165.106 160.665 164.962ZM168.631 186.634C170.575 186.634 172.159 185.05 172.159 183.034V154.018C172.159 152.074 170.575 150.49 168.631 150.49C166.615 150.49 165.031 152.074 165.031 154.018V183.034C165.031 185.05 166.615 186.634 168.631 186.634ZM168.631 143.29C169.567 143.29 170.503 142.93 171.151 142.282C171.799 141.634 172.159 140.698 172.159 139.762C172.159 138.826 171.799 137.89 171.151 137.242C170.503 136.594 169.567 136.162 168.631 136.162C167.695 136.162 166.759 136.594 166.111 137.242C165.463 137.89 165.031 138.826 165.031 139.762C165.031 140.698 165.463 141.634 166.111 142.282C166.759 142.93 167.695 143.29 168.631 143.29ZM180.233 186.634C182.177 186.634 183.761 185.05 183.761 183.034V136.162C183.761 134.218 182.177 132.634 180.233 132.634C178.217 132.634 176.633 134.218 176.633 136.162V183.034C176.633 185.05 178.217 186.634 180.233 186.634ZM205.947 186.562C215.955 186.562 224.019 178.426 224.019 168.49C224.019 158.482 215.955 150.418 205.947 150.418C196.011 150.418 187.875 158.482 187.875 168.49C187.875 178.426 196.011 186.562 205.947 186.562ZM205.947 157.546C211.995 157.546 216.891 162.442 216.891 168.49C216.891 174.466 211.995 179.434 205.947 179.434C199.899 179.434 195.003 174.466 195.003 168.49C195.003 162.442 199.899 157.546 205.947 157.546Z" fill="white"/>
<path d="M84.4252 151.649C74.907 154.741 69.7296 164.903 72.8222 174.421C75.8926 183.87 86.0761 189.116 95.5943 186.024C98.1279 185.2 101.642 184.134 105.183 179.653C106.424 178.114 106.736 176.044 105.358 174.599C104.002 173.223 101.568 172.954 100.327 174.493C97.7296 177.684 94.9666 178.733 93.3916 179.245C88.8037 180.735 84.0123 179.037 81.2394 175.395L104.864 167.719C106.781 167.096 107.798 165.101 107.197 163.252C103.571 152.09 92.7108 148.957 84.4252 151.649ZM86.6278 158.428C90.7364 157.093 95.8309 157.86 98.8263 162.186L79.0367 168.616C79.162 164.109 82.04 159.919 86.6278 158.428Z" fill="white"/>
</svg>
