<svg width="40" height="40" viewBox="0 0 40 40" fill="none" xmlns="http://www.w3.org/2000/svg">
<path d="M36.6668 20.0002C36.6668 29.207 29.2042 36.6668 20.0001 36.6668C10.796 36.6668 3.33344 29.207 3.33344 20.0002C3.33344 10.7988 10.796 3.3335 20.0001 3.3335C29.2042 3.3335 36.6668 10.7988 36.6668 20.0002ZM20.0001 23.3604C18.2928 23.3604 16.9087 24.7445 16.9087 26.4518C16.9087 28.1591 18.2928 29.5432 20.0001 29.5432C21.7074 29.5432 23.0915 28.1591 23.0915 26.4518C23.0915 24.7445 21.7074 23.3604 20.0001 23.3604ZM17.0651 12.2484L17.5636 21.3882C17.5869 21.8159 17.9406 22.1507 18.3689 22.1507H21.6314C22.0596 22.1507 22.4133 21.8159 22.4366 21.3882L22.9351 12.2484C22.9603 11.7865 22.5925 11.398 22.1299 11.398H17.8703C17.4076 11.398 17.0399 11.7865 17.0651 12.2484V12.2484Z" fill="#5096D7" stroke="black" stroke-opacity="0.1"/>
</svg>
