<svg width="40" height="40" viewBox="0 0 40 40" fill="none" xmlns="http://www.w3.org/2000/svg">
<mask id="path-1-inside-1" fill="white">
<path d="M36.6667 19.9999C36.6667 29.2047 29.2048 36.6666 20.0001 36.6666C10.7953 36.6666 3.3334 29.2047 3.3334 19.9999C3.3334 10.7951 10.7953 3.33325 20.0001 3.33325C29.2048 3.33325 36.6667 10.7951 36.6667 19.9999ZM18.0722 28.8248L30.4378 16.4592C30.8577 16.0393 30.8577 15.3585 30.4378 14.9386L28.9172 13.4179C28.4973 12.998 27.8165 12.998 27.3965 13.4179L17.3119 23.5025L12.6036 18.7942C12.1837 18.3743 11.5029 18.3743 11.0829 18.7942L9.5623 20.3148C9.14241 20.7347 9.14241 21.4156 9.5623 21.8355L16.5515 28.8247C16.9715 29.2447 17.6523 29.2447 18.0722 28.8248Z"/>
</mask>
<path d="M36.6667 19.9999C36.6667 29.2047 29.2048 36.6666 20.0001 36.6666C10.7953 36.6666 3.3334 29.2047 3.3334 19.9999C3.3334 10.7951 10.7953 3.33325 20.0001 3.33325C29.2048 3.33325 36.6667 10.7951 36.6667 19.9999ZM18.0722 28.8248L30.4378 16.4592C30.8577 16.0393 30.8577 15.3585 30.4378 14.9386L28.9172 13.4179C28.4973 12.998 27.8165 12.998 27.3965 13.4179L17.3119 23.5025L12.6036 18.7942C12.1837 18.3743 11.5029 18.3743 11.0829 18.7942L9.5623 20.3148C9.14241 20.7347 9.14241 21.4156 9.5623 21.8355L16.5515 28.8247C16.9715 29.2447 17.6523 29.2447 18.0722 28.8248Z" fill="#7BD750" stroke="black" stroke-opacity="0.1" stroke-width="2" mask="url(#path-1-inside-1)"/>
</svg>
